<svg xmlns="http://www.w3.org/2000/svg" viewBox="0 0 200 200" fill="none">
  <!-- Warm love gradient -->
  <defs>
    <radialGradient id="g2" cx="50%" cy="40%" r="60%">
      <stop offset="0%" stop-color="#4a2028"/>
      <stop offset="100%" stop-color="#1a0d10"/>
    </radialGradient>
  </defs>
  <rect width="200" height="200" rx="200" fill="url(#g2)"/>
  <!-- Heart shapes -->
  <g opacity="0.12" fill="#e87080">
    <path d="M50 50 C50 40 65 35 70 45 C75 35 90 40 90 50 C90 65 70 75 70 75 C70 75 50 65 50 50Z" transform="scale(0.5) translate(40,30)"/>
    <path d="M50 50 C50 40 65 35 70 45 C75 35 90 40 90 50 C90 65 70 75 70 75 C70 75 50 65 50 50Z" transform="scale(0.35) translate(380,180)"/>
    <path d="M50 50 C50 40 65 35 70 45 C75 35 90 40 90 50 C90 65 70 75 70 75 C70 75 50 65 50 50Z" transform="scale(0.3) translate(200,320)"/>
  </g>
  <!-- Guitar silhouette -->
  <g transform="translate(0,5)">
    <ellipse cx="100" cy="140" rx="36" ry="28" stroke="#e8a0a8" stroke-width="2.5" opacity="0.55"/>
    <ellipse cx="100" cy="112" rx="24" ry="20" stroke="#e8a0a8" stroke-width="2.5" opacity="0.55"/>
    <circle cx="100" cy="120" r="9" stroke="#e8a0a8" stroke-width="1.2" opacity="0.3"/>
    <line x1="100" y1="92" x2="100" y2="50" stroke="#e8a0a8" stroke-width="4" stroke-linecap="round" opacity="0.55"/>
    <rect x="92" y="36" width="16" height="16" rx="3" stroke="#e8a0a8" stroke-width="2" opacity="0.55"/>
  </g>
</svg>
